<?xml version="1.0" encoding="utf-8"?>
<!-- Generator: Adobe Illustrator 28.1.0, SVG Export Plug-In . SVG Version: 6.00 Build 0)  -->
<svg version="1.1" id="Layer_1" xmlns="http://www.w3.org/2000/svg" xmlns:xlink="http://www.w3.org/1999/xlink" x="0px" y="0px"
	 viewBox="0 0 500 500" style="enable-background:new 0 0 500 500;" xml:space="preserve">
<style type="text/css">
	.st0{fill:#F5F4EB;}
	.st1{fill:#222E33;}
	.st2{fill:#FC0C3D;}
	.st3{fill:#27B704;}
	.st4{fill:#FEDC00;}
	.st5{fill:#FFFFFF;}
	.st6{fill:#F89B00;}
	.st7{fill:#8E0223;}
	.st8{fill:#1B7C00;}
	.st9{fill:#3DFF06;}
	.st10{fill:#38FF00;}
</style>
<path class="st0" d="M444.37,369.91H52.23c-13.89,0-25.15-11.26-25.15-25.15V173.38c0-13.89,11.26-25.15,25.15-25.15h392.14
	c13.89,0,25.15,11.26,25.15,25.15v171.38C469.51,358.65,458.25,369.91,444.37,369.91z"/>
<path class="st1" d="M427.12,360.7H71.33c-16.13,0-29.21-13.08-29.21-29.21V184.6c0-16.13,13.08-29.21,29.21-29.21h355.79
	c16.13,0,29.21,13.08,29.21,29.21v146.89C456.33,347.62,443.25,360.7,427.12,360.7z"/>
<circle class="st2" cx="121.14" cy="207.47" r="28.79"/>
<circle class="st2" cx="122.87" cy="311.05" r="28.79"/>
<circle class="st3" cx="370.5" cy="312.78" r="28.79"/>
<path class="st4" d="M263.98,287.91h-30.33c-9.18,0-16.62-7.44-16.62-16.62v-24.9c0-9.18,7.44-16.62,16.62-16.62h30.33
	c9.18,0,16.62,7.44,16.62,16.62v24.9C280.6,280.47,273.16,287.91,263.98,287.91z"/>
<polygon class="st5" points="220.56,233.15 231.94,246.93 264.06,246.93 274.64,232.02 "/>
<polygon class="st6" points="222.02,234.91 231.94,246.93 231.94,274.21 264.15,274.21 264.06,246.93 273.69,233.35 278.34,237.88 
	276.42,285.68 217.66,283.39 217.66,236.35 "/>
<path class="st5" d="M93.74,207.51c3.82-11.68,14.54-19.77,26.73-20.21c11.89-0.43,22.94,6.5,27.79,17.45
	c-0.16-10.46-5.86-19.97-14.87-24.56c-11.26-5.74-24.93-2.41-32.75,6.25C93.06,194.83,93.58,205.34,93.74,207.51z"/>
<path class="st5" d="M96.41,309.6c0.52-1.03,8.27-15.69,25.08-17.43c11.66-1.21,23.14,4.25,29.77,14.14
	c-2.42-16.5-17.79-27.31-32.35-24.7C106.44,283.84,96.57,295.55,96.41,309.6z"/>
<path class="st5" d="M343.3,315.45c4.02-11.16,13.87-19.21,25.53-20.85c12.11-1.7,24.22,3.78,31.03,14.06
	c-3.79-15.87-17.95-26.03-31.67-24.57c-10.52,1.12-19.88,8.98-23.43,18.75C342.9,307.94,342.99,312.57,343.3,315.45z"/>
<path class="st7" d="M93.77,208.9c0.65,1.33,7.57,14.95,22.98,17.45c11.94,1.94,24.19-3.57,31.19-14.06
	c-0.28,2.31-1.72,11.87-10.01,18.56c-8.28,6.68-20.79,8.4-30.87,2.45C98.6,228.32,93.54,218.94,93.77,208.9z"/>
<path class="st7" d="M97.49,312.78c0.65,1.33,7.57,14.95,22.98,17.45c11.94,1.94,24.19-3.57,31.19-14.06
	c-0.28,2.31-1.72,11.87-10.01,18.56c-8.28,6.68-20.79,8.4-30.87,2.45C102.32,332.2,97.25,322.82,97.49,312.78z"/>
<path class="st8" d="M343.42,315.45c0.65,1.33,7.57,14.95,22.98,17.45c11.94,1.94,24.19-3.57,31.19-14.06
	c-0.28,2.31-1.72,11.87-10.01,18.56c-8.28,6.68-20.79,8.4-30.87,2.45C348.25,334.86,343.19,325.48,343.42,315.45z"/>
<g>
	<path d="M271.41,291.64h-46.23c-6.78,0-12.29-5.51-12.29-12.29v-40.11c0-6.78,5.51-12.29,12.29-12.29h46.23
		c6.78,0,12.29,5.51,12.29,12.29v40.11C283.71,286.13,278.19,291.64,271.41,291.64z M225.18,236.07c-1.75,0-3.17,1.42-3.17,3.17
		v40.11c0,1.75,1.42,3.17,3.17,3.17h46.23c1.75,0,3.17-1.42,3.17-3.17v-40.11c0-1.75-1.42-3.17-3.17-3.17H225.18z"/>
</g>
<g>
	<path d="M120.23,240.15c-18,0-32.64-14.64-32.64-32.64s14.64-32.64,32.64-32.64s32.64,14.64,32.64,32.64
		S138.23,240.15,120.23,240.15z M120.23,181.02c-14.61,0-26.49,11.89-26.49,26.49s11.89,26.49,26.49,26.49s26.49-11.89,26.49-26.49
		S134.84,181.02,120.23,181.02z"/>
</g>
<g>
	<path d="M122.87,343.69c-18,0-32.64-14.64-32.64-32.64c0-18,14.64-32.64,32.64-32.64c18,0,32.64,14.64,32.64,32.64
		C155.51,329.05,140.87,343.69,122.87,343.69z M122.87,284.56c-14.61,0-26.49,11.89-26.49,26.49c0,14.61,11.89,26.49,26.49,26.49
		s26.49-11.89,26.49-26.49C149.36,296.44,137.48,284.56,122.87,284.56z"/>
</g>
<g>
	<path d="M370.5,345.42c-18,0-32.64-14.64-32.64-32.64c0-18,14.64-32.64,32.64-32.64c18,0,32.64,14.64,32.64,32.64
		C403.14,330.78,388.5,345.42,370.5,345.42z M370.5,286.29c-14.61,0-26.49,11.89-26.49,26.49c0,14.61,11.89,26.49,26.49,26.49
		c14.61,0,26.49-11.89,26.49-26.49C396.99,298.17,385.11,286.29,370.5,286.29z"/>
</g>
<g>
	<path d="M446.35,375.15H50.24c-15.66,0-28.41-12.74-28.41-28.41V171.19c0-15.66,12.74-28.41,28.41-28.41h396.1
		c15.66,0,28.41,12.74,28.41,28.41v175.55C474.75,362.41,462.01,375.15,446.35,375.15z M50.24,153.27
		c-9.88,0-17.92,8.04-17.92,17.92v175.55c0,9.88,8.04,17.92,17.92,17.92h396.1c9.88,0,17.92-8.04,17.92-17.92V171.19
		c0-9.88-8.04-17.92-17.92-17.92H50.24z"/>
</g>
<circle class="st9" cx="369.5" cy="207.47" r="28.79"/>
<path class="st5" d="M342.31,210.13c4.02-11.16,13.87-19.21,25.53-20.85c12.11-1.7,24.22,3.78,31.03,14.06
	c-3.79-15.87-17.95-26.03-31.67-24.57c-10.52,1.12-19.88,8.98-23.43,18.75C341.91,202.63,342,207.25,342.31,210.13z"/>
<path class="st8" d="M342.42,210.13c0.65,1.33,7.57,14.95,22.98,17.45c11.94,1.94,24.19-3.57,31.19-14.06
	c-0.28,2.31-1.72,11.87-10.01,18.56c-8.28,6.68-20.79,8.4-30.87,2.45C347.26,229.54,342.19,220.17,342.42,210.13z"/>
<g>
	<path d="M369.5,240.11c-18,0-32.64-14.64-32.64-32.64s14.64-32.64,32.64-32.64c18,0,32.64,14.64,32.64,32.64
		S387.5,240.11,369.5,240.11z M369.5,180.97c-14.61,0-26.49,11.89-26.49,26.49c0,14.61,11.89,26.49,26.49,26.49
		c14.61,0,26.49-11.89,26.49-26.49C396,192.86,384.11,180.97,369.5,180.97z"/>
</g>
<g>
	<path class="st2" d="M52.56,19.54c4.69-1.09,9.67-2.13,14.93-3.13c4.55-0.79,9.67-1.49,15.35-2.09c5.68-0.6,11.51-0.89,17.48-0.89
		c7.25,0,13.57,0.6,18.98,1.79c5.4,1.19,9.95,2.78,13.65,4.77c3.69,1.99,6.47,4.35,8.32,7.08c1.85,2.73,2.77,5.64,2.77,8.71
		c0,4.87-2.31,9.96-6.93,15.27c-4.62,5.31-11.62,10.26-21,14.82c0.57-0.1,1.14-0.2,1.71-0.3c0.71,0,1.46-0.02,2.24-0.07
		c0.78-0.05,1.67-0.07,2.67-0.07c2.56,0,5.51,0.27,8.85,0.82c3.34,0.55,6.5,1.64,9.49,3.28c2.99,1.64,5.51,4,7.57,7.08
		c2.06,3.08,3.09,7.2,3.09,12.36c0,4.37-1.17,8.24-3.52,11.62c-2.35,3.38-5.3,6.31-8.85,8.79c-3.55,2.48-7.39,4.62-11.51,6.41
		c-7.11,3.18-15.14,5.61-24.1,7.3l-9.38-12.81c0.43,3.08,0.85,5.91,1.28,8.49c0.43,2.58,0.78,4.87,1.07,6.85
		c0.28,2.29,0.57,4.32,0.85,6.11l-44.99,10.87c3.69-23.93,6.5-44.1,8.42-60.48c1.92-16.39,3.23-28.2,3.94-35.46
		c-2.85,0.8-5.05,1.49-6.61,2.09c-1,0.3-1.85,0.6-2.56,0.89L52.56,19.54z M91.79,43.23c-0.57,2.29-0.96,4.92-1.17,7.9
		c-0.21,2.98-0.32,6.21-0.32,9.68v5.96c1.99-1.79,4.05-3.8,6.18-6.03c2.13-2.23,4.08-4.52,5.86-6.85c1.78-2.33,3.27-4.57,4.48-6.7
		c1.21-2.13,1.81-4.05,1.81-5.74c0-1.99-2.13-2.98-6.4-2.98c-2.56,0-5.54,0.3-8.96,0.89c-3.41,0.6-6.97,1.34-10.66,2.23L91.79,43.23
		z M91.37,83.3c0.14,0.5,0.21,0.97,0.21,1.42c0,0.45,0,0.92,0,1.42l0.64,5.81c0,0.2,0,0.45,0,0.74l0.21,1.49c0,0.2,0,0.45,0,0.74
		c2.56-0.2,5.29-0.5,8.21-0.89c2.91-0.4,5.65-0.99,8.21-1.79c2.56-0.79,4.65-1.79,6.29-2.98c1.63-1.19,2.45-2.63,2.45-4.32
		c0-1.79-0.78-3-2.35-3.65c-1.57-0.64-3.55-0.97-5.97-0.97c-2.85,0-5.9,0.32-9.17,0.97C96.84,81.94,93.93,82.61,91.37,83.3z"/>
	<path class="st2" d="M201.18,19.54c-2.42,7.45-4.48,14.95-6.18,22.49c-0.85,3.18-1.64,6.55-2.35,10.13
		c-0.71,3.58-1.39,7.18-2.03,10.8c-0.64,3.63-1.14,7.25-1.49,10.87c-0.36,3.63-0.53,7.08-0.53,10.35c0,3.38,0.21,6.51,0.64,9.39
		c0.43,2.88,1.17,5.36,2.24,7.45c1.07,2.09,2.45,3.72,4.16,4.92c1.71,1.19,3.84,1.79,6.4,1.79c2.99,0,5.47-0.94,7.46-2.83
		c1.99-1.89,3.55-4.42,4.69-7.6c1.14-3.18,1.95-6.88,2.45-11.1c0.5-4.22,0.75-8.61,0.75-13.18c0-6.26-0.32-12.54-0.96-18.84
		c-0.64-6.31-1.32-12.04-2.03-17.21c-0.85-5.96-1.85-11.77-2.99-17.43l36.04-6.11c1.56,5.46,2.99,11.27,4.26,17.43
		c0.99,5.27,1.92,11.25,2.77,17.95c0.85,6.7,1.28,13.68,1.28,20.93c0,7.95-0.75,15.79-2.24,23.54c-1.49,7.75-4.2,14.7-8.1,20.86
		c-3.91,6.16-9.28,11.15-16.1,14.97c-6.82,3.82-15.57,5.74-26.23,5.74c-10.8,0-19.65-1.86-26.55-5.59
		c-6.9-3.72-12.33-8.59-16.31-14.6c-3.98-6.01-6.72-12.83-8.21-20.48c-1.49-7.65-2.24-15.39-2.24-23.24
		c0-7.35,0.46-14.47,1.39-21.38c0.92-6.9,1.95-13.04,3.09-18.4c1.28-6.26,2.77-12.16,4.48-17.73L201.18,19.54z"/>
	<path class="st2" d="M265.79,13.43c8.67,0.5,17.27,0.89,25.8,1.19c3.55,0.2,7.28,0.37,11.19,0.52c3.91,0.15,7.78,0.3,11.62,0.45
		c3.84,0.15,7.53,0.25,11.09,0.3c3.55,0.05,6.82,0.07,9.81,0.07h4.05c1.14,1.89,2.42,3.87,3.84,5.96c1.14,1.79,2.49,3.78,4.05,5.96
		c1.56,2.19,3.2,4.37,4.9,6.55l-55.23,77.76c5.12-1.29,10.66-2.68,16.63-4.17c5.12-1.29,11.01-2.76,17.7-4.39
		c6.68-1.64,13.65-3.3,20.9-4.99c-0.14,1.29-0.21,2.73-0.21,4.32c-0.14,1.39-0.25,2.98-0.32,4.77c-0.07,1.79-0.11,3.68-0.11,5.66
		c0,4.27,0.21,8.34,0.64,12.22c-7.54,1.39-15.5,2.93-23.88,4.62c-7.25,1.39-15.5,3.1-24.73,5.14c-9.24,2.03-18.84,4.25-28.79,6.63
		c-2.56-3.08-5.05-5.91-7.46-8.49c-2.13-2.28-4.26-4.49-6.4-6.63c-2.13-2.13-3.98-3.6-5.54-4.39l58.43-84.47l-58.43,5.96
		c1-3.87,2.13-7.65,3.41-11.32c0.99-3.18,2.1-6.53,3.31-10.06C263.26,19.07,264.51,16.02,265.79,13.43z"/>
	<path class="st2" d="M360.03,13.43c8.67,0.5,17.27,0.89,25.8,1.19c3.55,0.2,7.28,0.37,11.19,0.52c3.91,0.15,7.78,0.3,11.62,0.45
		c3.84,0.15,7.53,0.25,11.09,0.3c3.55,0.05,6.82,0.07,9.81,0.07h4.05c1.14,1.89,2.42,3.87,3.84,5.96c1.14,1.79,2.49,3.78,4.05,5.96
		c1.56,2.19,3.2,4.37,4.9,6.55l-55.23,77.76c5.12-1.29,10.66-2.68,16.63-4.17c5.12-1.29,11.01-2.76,17.7-4.39
		c6.68-1.64,13.65-3.3,20.9-4.99c-0.14,1.29-0.21,2.73-0.21,4.32c-0.14,1.39-0.25,2.98-0.32,4.77c-0.07,1.79-0.11,3.68-0.11,5.66
		c0,4.27,0.21,8.34,0.64,12.22c-7.54,1.39-15.5,2.93-23.88,4.62c-7.25,1.39-15.5,3.1-24.73,5.14c-9.24,2.03-18.84,4.25-28.79,6.63
		c-2.56-3.08-5.05-5.91-7.46-8.49c-2.13-2.28-4.26-4.49-6.4-6.63c-2.13-2.13-3.98-3.6-5.54-4.39l58.43-84.47l-58.43,5.96
		c1-3.87,2.13-7.65,3.41-11.32c0.99-3.18,2.1-6.53,3.31-10.06C357.51,19.07,358.75,16.02,360.03,13.43z"/>
</g>
<g>
	<path class="st3" d="M94.04,423.88c0-0.94-0.16-2.51-0.46-4.69c-0.31-2.18-0.92-4.39-1.84-6.62c-0.92-2.23-2.24-4.2-3.95-5.91
		c-1.72-1.71-4.05-2.57-6.99-2.57c-3.31,0-6.16,0.86-8.55,2.57c-2.39,1.71-4.38,3.94-5.98,6.68c-1.59,2.74-2.76,5.89-3.49,9.44
		c-0.74,3.56-1.1,7.13-1.1,10.73c0,3.43,0.34,6.79,1.01,10.09c0.67,3.3,1.59,6.23,2.76,8.8c1.16,2.57,2.63,4.65,4.41,6.23
		c1.78,1.59,3.77,2.38,5.98,2.38c2.08,0,3.8-0.36,5.15-1.09c1.35-0.73,2.39-1.61,3.13-2.63c0.74-1.03,1.26-2.14,1.56-3.34
		c0.3-1.2,0.46-2.27,0.46-3.21h-8.83c0.12-1.28,0.18-2.65,0.18-4.11c0.12-1.2,0.18-2.65,0.18-4.37v-9.12c0-1.37-0.06-2.7-0.18-3.98
		l40.09,3.47c-0.12,0.86-0.25,1.8-0.37,2.83c-0.12,0.86-0.22,1.86-0.28,3.02c-0.06,1.16-0.09,2.42-0.09,3.79
		c0,1.37,0.06,2.76,0.18,4.18c0.12,1.41,0.3,2.85,0.55,4.3H101.4l9.38,1.67v1.28c0,1.03-0.12,2.57-0.37,4.63
		c-0.25,2.06-0.77,4.3-1.56,6.75c-0.8,2.44-2.02,4.95-3.68,7.52c-1.66,2.57-3.93,4.93-6.8,7.07c-2.88,2.14-6.47,3.87-10.76,5.2
		c-4.29,1.33-9.5,1.99-15.63,1.99c-6.01,0-11.34-1.63-16-4.88c-4.66-3.25-8.58-7.52-11.77-12.78c-3.19-5.27-5.61-11.26-7.26-17.99
		c-1.66-6.72-2.48-13.55-2.48-20.49c0-6.59,0.8-13.02,2.39-19.27c1.59-6.25,4.05-11.8,7.36-16.64c3.31-4.84,7.48-8.74,12.51-11.69
		c5.03-2.95,11.03-4.43,18.02-4.43c3.8,0,7.05,0.6,9.75,1.8c2.7,1.2,5.09,2.7,7.17,4.5l-0.37-5.78l26.3-0.51l-2.57,44.58
		L94.04,423.88z"/>
	<path class="st3" d="M115.55,427.35c1.35-0.17,2.82-0.39,4.41-0.64c1.35-0.17,3-0.39,4.97-0.64c1.96-0.26,4.17-0.56,6.62-0.9
		c2.45-6.42,4.9-12.42,7.36-17.99c2.45-5.57,4.66-10.45,6.62-14.65c2.33-4.97,4.6-9.55,6.8-13.75h0.74l1.29-0.13
		c5.64,0,11.46,0.66,17.47,1.99c6.01,1.33,11.34,3.11,16,5.33c1.72,3.85,3.37,8.54,4.97,14.07c1.59,5.52,3.19,11.37,4.78,17.54
		c4.41-0.34,8.21-0.6,11.4-0.77v24.41l-20.78,0.9l15.45,1.29c0.86,3.68,1.59,7.07,2.21,10.15c0.61,3.08,1.16,5.74,1.66,7.97
		c0.49,2.66,0.98,5.05,1.47,7.19l-35.49,4.63c0.37-1.8,0.55-4.11,0.55-6.94c0-3.25-0.16-6.89-0.46-10.92
		c-0.31-4.03-0.71-8.22-1.2-12.59l-26.48,1.16l9.56,1.16c-0.74,5.91-1.32,11.54-1.75,16.9c-0.43,5.35-0.77,10.13-1.01,14.33
		c-0.25,4.88-0.43,9.42-0.55,13.62l-34.21-13.62c0.37-4.88,1.13-9.98,2.3-15.29c1.16-5.31,2.6-10.71,4.32-16.19l-5.52,0.26
		L115.55,427.35z M169.44,420.41c-0.37-2.91-0.74-5.61-1.1-8.09c-0.37-2.48-0.68-4.63-0.92-6.42c-0.37-2.14-0.68-4.11-0.92-5.91
		c-1.47,3-2.76,6.32-3.86,9.96c-1.1,3.64-2.15,7.52-3.13,11.63L169.44,420.41z"/>
	<path class="st3" d="M265.98,423.62l15.63-44.97l28.69,5.27c0.98,3,1.87,6.55,2.67,10.66c0.8,4.11,1.5,8.5,2.11,13.17
		c0.61,4.67,1.13,9.49,1.56,14.45c0.43,4.97,0.83,9.81,1.2,14.52c0.74,11.05,1.29,22.57,1.65,34.56l-31.26,6.17v-1.41l0.18-2.83
		c0-8.82-0.12-17.56-0.37-26.21c-0.25-8.65-0.74-17.39-1.47-26.21l-9.93,49.34l-23.72-2.44l-8.46-49.34
		c-0.37,4.63-0.61,9.17-0.74,13.62c-0.12,4.45-0.18,8.74-0.18,12.85c0,6.42,0.15,12.29,0.46,17.6c0.3,5.31,0.58,9.94,0.83,13.88
		c0.37,4.54,0.8,8.65,1.29,12.33l-37.15-11.18c0-16.02,0.43-29.85,1.29-41.5c0.86-11.65,1.78-21.37,2.76-29.17
		c1.1-9.08,2.39-16.7,3.86-22.87l38.44-5.4L265.98,423.62z"/>
	<path class="st3" d="M382.76,433.26c-1.84-0.34-4.35-0.51-7.54-0.51c-4.29,0-9.1,0.28-14.44,0.83c-5.33,0.56-10.51,1.18-15.54,1.86
		h11.03c-0.25,3-0.52,5.78-0.83,8.35c-0.31,2.57-0.58,4.84-0.83,6.81c-0.25,2.23-0.55,4.28-0.92,6.17c0.24-0.17,1.04-0.41,2.39-0.71
		c1.35-0.3,2.97-0.66,4.87-1.09c1.9-0.43,4.05-0.9,6.44-1.41c2.39-0.51,4.81-1.03,7.26-1.54c5.76-1.2,12.26-2.53,19.49-3.98
		l4.41,25.82c-4.17,0.26-8.52,0.64-13.06,1.16c-4.54,0.51-9.04,1.16-13.52,1.93c-4.48,0.77-8.86,1.59-13.15,2.44
		c-4.29,0.86-8.4,1.71-12.32,2.57c-9.2,2.06-18.15,4.28-26.85,6.68c1.47-3.6,2.73-7.45,3.77-11.56c1.04-4.11,1.93-8.35,2.67-12.72
		s1.35-8.78,1.84-13.23c0.49-4.45,0.86-8.82,1.1-13.1c-0.74,0.17-1.41,0.28-2.02,0.32c-0.61,0.04-1.17,0.11-1.66,0.19
		c-0.49,0.09-0.92,0.17-1.29,0.26l-4.41-18.89c1.47-0.34,3.03-0.66,4.69-0.96c1.66-0.3,3.46-0.58,5.43-0.84v-4.11
		c0-2.23-0.03-4.22-0.09-5.97c-0.06-1.75-0.09-3.32-0.09-4.69c-2.7,0.17-4.66,0.3-5.88,0.39c-0.86,0.09-1.59,0.17-2.21,0.26v-1.16
		c0-1.37-0.09-3.13-0.28-5.27c-0.18-2.14-0.4-4.24-0.64-6.3c-0.25-2.4-0.55-4.92-0.92-7.58c4.05-0.86,8.74-1.56,14.07-2.12
		c5.33-0.56,10.85-1.03,16.55-1.41c5.7-0.39,11.31-0.66,16.83-0.84c5.52-0.17,10.51-0.32,14.99-0.45c4.47-0.13,8.18-0.19,11.13-0.19
		h5.33l-5.88,28.27c-7.72-1.63-15.51-2.72-23.36-3.28c-7.85-0.56-15.08-0.84-21.7-0.84h-1.1l10.3,2.83
		c0.12,1.54,0.18,3.08,0.18,4.63c0,1.54,0,3.04,0,4.5c4.17-0.43,8.09-0.84,11.77-1.22c3.68-0.39,6.93-0.71,9.75-0.96
		c3.31-0.26,6.37-0.51,9.2-0.77L382.76,433.26z"/>
	<path class="st3" d="M433.7,378.65c5.15,0,9.56,0.71,13.24,2.12c3.68,1.41,6.8,3.28,9.38,5.59c2.57,2.31,4.66,4.97,6.25,7.97
		c1.59,3,2.82,6.06,3.68,9.19c0.86,3.13,1.44,6.25,1.75,9.38c0.3,3.13,0.46,5.93,0.46,8.42c0,1.46-0.03,2.76-0.09,3.92
		c-0.06,1.16-0.09,2.16-0.09,3.02c-0.12,1.03-0.25,1.93-0.37,2.7l-25.93,7.32c0.12-0.77,0.18-1.67,0.18-2.7
		c0.12-0.86,0.18-1.84,0.18-2.95c0-1.11,0-2.31,0-3.6c0-2.57-0.09-5.31-0.28-8.22c-0.18-2.91-0.58-5.63-1.2-8.16
		c-0.61-2.53-1.47-4.63-2.57-6.3c-1.1-1.67-2.57-2.51-4.41-2.51c-2.57,0-4.69,0.9-6.34,2.7c-1.66,1.8-3.01,4.09-4.05,6.87
		c-1.04,2.78-1.78,5.87-2.21,9.25c-0.43,3.38-0.64,6.7-0.64,9.96c0,3.08,1.16,5.2,3.49,6.36c2.33,1.16,5.27,1.93,8.83,2.31
		c3.55,0.39,7.36,0.58,11.4,0.58c4.05,0,7.84,0.37,11.4,1.09c3.55,0.73,6.5,2.1,8.83,4.11c2.33,2.01,3.49,5.12,3.49,9.31
		c0,4.37-1.59,8.59-4.78,12.66c-3.19,4.07-7.24,7.67-12.14,10.79c-4.91,3.13-10.27,5.61-16.09,7.45
		c-5.82,1.84-11.37,2.76-16.64,2.76c-0.37-0.34-0.95-1.01-1.75-1.99c-0.8-0.99-1.72-2.16-2.76-3.53c-1.04-1.37-2.15-2.87-3.31-4.5
		c-1.17-1.63-2.3-3.25-3.4-4.88c-2.7-3.77-5.58-7.97-8.64-12.59c5.88,0.69,11,1.18,15.36,1.48c4.35,0.3,8,0.45,10.94,0.45
		c2.82,0,5.12-0.11,6.9-0.32c1.78-0.21,3.16-0.49,4.14-0.84c0.98-0.34,1.66-0.73,2.02-1.16c0.37-0.43,0.55-0.86,0.55-1.28
		c0-0.68-0.18-1.2-0.55-1.54c-0.12-0.26-0.31-0.47-0.55-0.64c-7.48-0.26-14.16-1.41-20.05-3.47c-3.31-1.2-6.53-2.8-9.65-4.82
		c-3.13-2.01-5.67-4.6-7.63-7.77c-1.96-3.17-2.94-7.07-2.94-11.69c0-2.31,0.09-5.2,0.28-8.67c0.18-3.47,0.61-7.15,1.29-11.05
		c0.67-3.9,1.78-7.77,3.31-11.63c1.53-3.85,3.65-7.34,6.34-10.47c2.7-3.13,6.13-5.65,10.3-7.58
		C422.78,379.61,427.81,378.65,433.7,378.65z"/>
</g>
<g>
	<path class="st10" d="M341.77,232l0.27,0.31c1.57,1.83,1.36,4.6-0.47,6.17l-16.72,14.36c-1.83,1.57-4.6,1.36-6.17-0.47l-0.27-0.31
		c-1.57-1.83-1.36-4.6,0.47-6.17l16.72-14.36C337.43,229.95,340.2,230.16,341.77,232z"/>
	<path d="M322.02,254.76c-1.56,0-3.11-0.65-4.2-1.93c-1.99-2.32-1.72-5.82,0.59-7.8l16.41-14.09c1.12-0.96,2.55-1.43,4.02-1.32
		c1.47,0.11,2.82,0.79,3.78,1.91c1.99,2.32,1.72,5.82-0.59,7.8l-16.41,14.09C324.58,254.32,323.3,254.76,322.02,254.76z
		 M338.42,231.51c-0.87,0-1.69,0.31-2.36,0.88l-16.41,14.09c-1.52,1.3-1.69,3.6-0.39,5.12c1.3,1.52,3.6,1.69,5.12,0.39l16.41-14.09
		c1.52-1.3,1.69-3.6,0.39-5.12c-0.63-0.74-1.51-1.18-2.48-1.25C338.61,231.51,338.52,231.51,338.42,231.51z"/>
</g>
<g>
	<path class="st10" d="M332.91,207.26v0.41c0,2.42-1.96,4.38-4.38,4.38H306.5c-2.42,0-4.38-1.96-4.38-4.38v-0.41
		c0-2.42,1.96-4.38,4.38-4.38h22.04C330.95,202.89,332.91,204.85,332.91,207.26z"/>
	<path d="M328.33,213H306.7c-3.05,0-5.53-2.48-5.53-5.53s2.48-5.53,5.53-5.53h21.63c3.05,0,5.53,2.48,5.53,5.53
		S331.38,213,328.33,213z M306.7,203.84c-2,0-3.63,1.63-3.63,3.63c0,2,1.63,3.63,3.63,3.63h21.63c2,0,3.63-1.63,3.63-3.63v0
		c0-2-1.63-3.63-3.63-3.63H306.7z"/>
</g>
<g>
	<path class="st10" d="M340.48,181.5l-0.27,0.31c-1.59,1.82-4.35,2.01-6.17,0.42l-16.6-14.5c-1.82-1.59-2.01-4.35-0.42-6.17
		l0.27-0.31c1.59-1.82,4.35-2.01,6.17-0.42l16.6,14.5C341.88,176.92,342.07,179.68,340.48,181.5z"/>
	<path d="M336.89,184.18c-1.34,0-2.62-0.48-3.63-1.37l-16.29-14.23c-2.3-2.01-2.54-5.51-0.53-7.81c0.97-1.11,2.32-1.78,3.79-1.88
		c1.47-0.1,2.9,0.38,4.01,1.35l16.29,14.23c1.11,0.97,1.78,2.32,1.88,3.79c0.1,1.47-0.38,2.9-1.35,4.01l0,0
		c-0.97,1.11-2.32,1.78-3.79,1.88C337.14,184.18,337.01,184.18,336.89,184.18z M320.61,160.79c-0.08,0-0.17,0-0.25,0.01
		c-0.97,0.07-1.85,0.5-2.49,1.23c-1.32,1.51-1.16,3.8,0.35,5.12l16.29,14.23c0.73,0.64,1.66,0.95,2.63,0.89
		c0.97-0.07,1.85-0.5,2.49-1.23l0,0c0.64-0.73,0.95-1.66,0.89-2.63s-0.5-1.85-1.23-2.49l-16.29-14.23
		C322.32,161.11,321.49,160.79,320.61,160.79z"/>
</g>
<g>
	<path class="st10" d="M396.51,235.3l-0.27,0.31c-1.57,1.83-1.36,4.6,0.47,6.17l16.72,14.36c1.83,1.57,4.6,1.36,6.17-0.47l0.27-0.31
		c1.57-1.83,1.36-4.6-0.47-6.17l-16.72-14.36C400.85,233.26,398.09,233.47,396.51,235.3z"/>
	<path d="M416.26,258.06c-1.28,0-2.56-0.44-3.6-1.33l-16.41-14.09c-1.12-0.96-1.8-2.3-1.91-3.78c-0.11-1.47,0.36-2.9,1.32-4.02v0
		c1.99-2.32,5.49-2.58,7.8-0.59l16.41,14.09c2.32,1.99,2.58,5.49,0.59,7.8C419.37,257.41,417.82,258.06,416.26,258.06z
		 M397.1,236.08L397.1,236.08c-1.3,1.52-1.13,3.81,0.39,5.12l16.41,14.09c1.52,1.3,3.81,1.13,5.12-0.39
		c1.3-1.52,1.13-3.81-0.39-5.12l-16.41-14.09c-0.74-0.63-1.67-0.94-2.64-0.86C398.61,234.9,397.73,235.35,397.1,236.08z"/>
</g>
<g>
	<path class="st10" d="M405.37,210.57v0.41c0,2.42,1.96,4.38,4.38,4.38h22.04c2.42,0,4.38-1.96,4.38-4.38v-0.41
		c0-2.42-1.96-4.38-4.38-4.38h-22.04C407.33,206.19,405.37,208.15,405.37,210.57z"/>
	<path d="M431.58,216.31h-21.63c-3.05,0-5.53-2.48-5.53-5.53c0-3.05,2.48-5.53,5.53-5.53h21.63c3.05,0,5.53,2.48,5.53,5.53
		C437.12,213.82,434.63,216.31,431.58,216.31z M409.95,207.14c-2,0-3.63,1.63-3.63,3.63c0,2,1.63,3.63,3.63,3.63h21.63
		c2,0,3.63-1.63,3.63-3.63c0-2-1.63-3.63-3.63-3.63H409.95z"/>
</g>
<g>
	<path class="st10" d="M397.8,184.81l0.27,0.31c1.59,1.82,4.35,2.01,6.17,0.42l16.6-14.5c1.82-1.59,2.01-4.35,0.42-6.17l-0.27-0.31
		c-1.59-1.82-4.35-2.01-6.17-0.42l-16.6,14.5C396.4,180.23,396.21,182.99,397.8,184.81z"/>
	<path d="M401.4,187.49c-0.13,0-0.25,0-0.38-0.01c-1.47-0.1-2.82-0.77-3.79-1.88l0,0c-2.01-2.3-1.77-5.8,0.53-7.81l16.29-14.23
		c1.11-0.97,2.54-1.45,4.01-1.35c1.47,0.1,2.82,0.77,3.79,1.88c2.01,2.3,1.77,5.8-0.53,7.81l-16.29,14.23
		C404.01,187.01,402.74,187.49,401.4,187.49z M398.66,184.34c0.64,0.73,1.52,1.17,2.49,1.23c0.96,0.06,1.9-0.25,2.63-0.89
		l16.29-14.23c1.51-1.32,1.66-3.61,0.35-5.12c-0.64-0.73-1.52-1.17-2.49-1.23c-0.97-0.06-1.9,0.25-2.63,0.89L399,179.22
		C397.5,180.54,397.34,182.83,398.66,184.34L398.66,184.34z"/>
</g>
<g>
	<path class="st10" d="M369.63,243.7h0.41c2.42,0,4.38,1.96,4.38,4.38v22.04c0,2.42-1.96,4.38-4.38,4.38h-0.41
		c-2.42,0-4.38-1.96-4.38-4.38v-22.04C365.26,245.66,367.22,243.7,369.63,243.7z"/>
	<path d="M369.84,275.44c-3.05,0-5.53-2.48-5.53-5.53v-21.63c0-3.05,2.48-5.53,5.53-5.53c3.05,0,5.53,2.48,5.53,5.53v21.63
		C375.37,272.96,372.89,275.44,369.84,275.44z M369.84,244.65c-2,0-3.63,1.63-3.63,3.63v21.63c0,2,1.63,3.63,3.63,3.63
		c2,0,3.63-1.63,3.63-3.63v-21.63C373.47,246.28,371.84,244.65,369.84,244.65z"/>
</g>
<g>
	<path class="st10" d="M369.63,171.24h0.41c2.42,0,4.38-1.96,4.38-4.38v-22.04c0-2.42-1.96-4.38-4.38-4.38h-0.41
		c-2.42,0-4.38,1.96-4.38,4.38v22.04C365.26,169.28,367.22,171.24,369.63,171.24z"/>
	<path d="M369.84,172.19c-3.05,0-5.53-2.48-5.53-5.53v-21.63c0-3.05,2.48-5.53,5.53-5.53c3.05,0,5.53,2.48,5.53,5.53v21.63
		C375.37,169.71,372.89,172.19,369.84,172.19z M369.84,141.4c-2,0-3.63,1.63-3.63,3.63v21.63c0,2,1.63,3.63,3.63,3.63
		c2,0,3.63-1.63,3.63-3.63v-21.63C373.47,143.03,371.84,141.4,369.84,141.4z"/>
</g>
</svg>
